<svg width="16" height="16" viewBox="0 0 16 16" fill="none" xmlns="http://www.w3.org/2000/svg">
<g clip-path="url(#clip0_0_403)">
<rect width="8" height="8" fill="black"/>
<rect width="1" height="1" fill="white"/>
<rect x="1" y="1" width="1" height="1" fill="white"/>
<rect x="3" y="1" width="1" height="1" fill="white"/>
<rect x="5" y="1" width="1" height="1" fill="white"/>
<rect x="7" y="1" width="1" height="1" fill="white"/>
<rect x="2" width="1" height="1" fill="white"/>
<rect x="4" width="1" height="1" fill="white"/>
<rect x="6" width="1" height="1" fill="white"/>
<rect y="2" width="1" height="1" fill="white"/>
<rect x="1" y="3" width="1" height="1" fill="white"/>
<rect x="3" y="3" width="1" height="1" fill="white"/>
<rect x="5" y="3" width="1" height="1" fill="white"/>
<rect x="7" y="3" width="1" height="1" fill="white"/>
<rect x="2" y="2" width="1" height="1" fill="white"/>
<rect x="4" y="2" width="1" height="1" fill="white"/>
<rect x="6" y="2" width="1" height="1" fill="white"/>
<rect y="4" width="1" height="1" fill="white"/>
<rect x="1" y="5" width="1" height="1" fill="white"/>
<rect x="3" y="5" width="1" height="1" fill="white"/>
<rect x="5" y="5" width="1" height="1" fill="white"/>
<rect x="7" y="5" width="1" height="1" fill="white"/>
<rect x="2" y="4" width="1" height="1" fill="white"/>
<rect x="4" y="4" width="1" height="1" fill="white"/>
<rect x="6" y="4" width="1" height="1" fill="white"/>
<rect y="6" width="1" height="1" fill="white"/>
<rect x="1" y="7" width="1" height="1" fill="white"/>
<rect x="3" y="7" width="1" height="1" fill="white"/>
<rect x="5" y="7" width="1" height="1" fill="white"/>
<rect x="7" y="7" width="1" height="1" fill="white"/>
<rect x="2" y="6" width="1" height="1" fill="white"/>
<rect x="4" y="6" width="1" height="1" fill="white"/>
<rect x="6" y="6" width="1" height="1" fill="white"/>
</g>
<g clip-path="url(#clip1_0_403)">
<rect width="8" height="8" transform="translate(0 8)" fill="black"/>
<rect y="8" width="1" height="1" fill="white"/>
<rect x="1" y="9" width="1" height="1" fill="white"/>
<rect x="3" y="9" width="1" height="1" fill="white"/>
<rect x="5" y="9" width="1" height="1" fill="white"/>
<rect x="7" y="9" width="1" height="1" fill="white"/>
<rect x="2" y="8" width="1" height="1" fill="white"/>
<rect x="4" y="8" width="1" height="1" fill="white"/>
<rect x="6" y="8" width="1" height="1" fill="white"/>
<rect y="10" width="1" height="1" fill="white"/>
<rect x="1" y="11" width="1" height="1" fill="white"/>
<rect x="3" y="11" width="1" height="1" fill="white"/>
<rect x="5" y="11" width="1" height="1" fill="white"/>
<rect x="7" y="11" width="1" height="1" fill="white"/>
<rect x="2" y="10" width="1" height="1" fill="white"/>
<rect x="4" y="10" width="1" height="1" fill="white"/>
<rect x="6" y="10" width="1" height="1" fill="white"/>
<rect y="12" width="1" height="1" fill="white"/>
<rect x="1" y="13" width="1" height="1" fill="white"/>
<rect x="3" y="13" width="1" height="1" fill="white"/>
<rect x="5" y="13" width="1" height="1" fill="white"/>
<rect x="7" y="13" width="1" height="1" fill="white"/>
<rect x="2" y="12" width="1" height="1" fill="white"/>
<rect x="4" y="12" width="1" height="1" fill="white"/>
<rect x="6" y="12" width="1" height="1" fill="white"/>
<rect y="14" width="1" height="1" fill="white"/>
<rect x="1" y="15" width="1" height="1" fill="white"/>
<rect x="3" y="15" width="1" height="1" fill="white"/>
<rect x="5" y="15" width="1" height="1" fill="white"/>
<rect x="7" y="15" width="1" height="1" fill="white"/>
<rect x="2" y="14" width="1" height="1" fill="white"/>
<rect x="4" y="14" width="1" height="1" fill="white"/>
<rect x="6" y="14" width="1" height="1" fill="white"/>
</g>
<g clip-path="url(#clip2_0_403)">
<rect width="8" height="8" transform="translate(8)" fill="black"/>
<rect x="8" width="1" height="1" fill="white"/>
<rect x="9" y="1" width="1" height="1" fill="white"/>
<rect x="11" y="1" width="1" height="1" fill="white"/>
<rect x="13" y="1" width="1" height="1" fill="white"/>
<rect x="15" y="1" width="1" height="1" fill="white"/>
<rect x="10" width="1" height="1" fill="white"/>
<rect x="12" width="1" height="1" fill="white"/>
<rect x="14" width="1" height="1" fill="white"/>
<rect x="8" y="2" width="1" height="1" fill="white"/>
<rect x="9" y="3" width="1" height="1" fill="white"/>
<rect x="11" y="3" width="1" height="1" fill="white"/>
<rect x="13" y="3" width="1" height="1" fill="white"/>
<rect x="15" y="3" width="1" height="1" fill="white"/>
<rect x="10" y="2" width="1" height="1" fill="white"/>
<rect x="12" y="2" width="1" height="1" fill="white"/>
<rect x="14" y="2" width="1" height="1" fill="white"/>
<rect x="8" y="4" width="1" height="1" fill="white"/>
<rect x="9" y="5" width="1" height="1" fill="white"/>
<rect x="11" y="5" width="1" height="1" fill="white"/>
<rect x="13" y="5" width="1" height="1" fill="white"/>
<rect x="15" y="5" width="1" height="1" fill="white"/>
<rect x="10" y="4" width="1" height="1" fill="white"/>
<rect x="12" y="4" width="1" height="1" fill="white"/>
<rect x="14" y="4" width="1" height="1" fill="white"/>
<rect x="8" y="6" width="1" height="1" fill="white"/>
<rect x="9" y="7" width="1" height="1" fill="white"/>
<rect x="11" y="7" width="1" height="1" fill="white"/>
<rect x="13" y="7" width="1" height="1" fill="white"/>
<rect x="15" y="7" width="1" height="1" fill="white"/>
<rect x="10" y="6" width="1" height="1" fill="white"/>
<rect x="12" y="6" width="1" height="1" fill="white"/>
<rect x="14" y="6" width="1" height="1" fill="white"/>
</g>
<g clip-path="url(#clip3_0_403)">
<rect width="8" height="8" transform="translate(8 8)" fill="black"/>
<rect x="8" y="8" width="1" height="1" fill="white"/>
<rect x="9" y="9" width="1" height="1" fill="white"/>
<rect x="11" y="9" width="1" height="1" fill="white"/>
<rect x="13" y="9" width="1" height="1" fill="white"/>
<rect x="15" y="9" width="1" height="1" fill="white"/>
<rect x="10" y="8" width="1" height="1" fill="white"/>
<rect x="12" y="8" width="1" height="1" fill="white"/>
<rect x="14" y="8" width="1" height="1" fill="white"/>
<rect x="8" y="10" width="1" height="1" fill="white"/>
<rect x="9" y="11" width="1" height="1" fill="white"/>
<rect x="11" y="11" width="1" height="1" fill="white"/>
<rect x="13" y="11" width="1" height="1" fill="white"/>
<rect x="15" y="11" width="1" height="1" fill="white"/>
<rect x="10" y="10" width="1" height="1" fill="white"/>
<rect x="12" y="10" width="1" height="1" fill="white"/>
<rect x="14" y="10" width="1" height="1" fill="white"/>
<rect x="8" y="12" width="1" height="1" fill="white"/>
<rect x="9" y="13" width="1" height="1" fill="white"/>
<rect x="11" y="13" width="1" height="1" fill="white"/>
<rect x="13" y="13" width="1" height="1" fill="white"/>
<rect x="15" y="13" width="1" height="1" fill="white"/>
<rect x="10" y="12" width="1" height="1" fill="white"/>
<rect x="12" y="12" width="1" height="1" fill="white"/>
<rect x="14" y="12" width="1" height="1" fill="white"/>
<rect x="8" y="14" width="1" height="1" fill="white"/>
<rect x="9" y="15" width="1" height="1" fill="white"/>
<rect x="11" y="15" width="1" height="1" fill="white"/>
<rect x="13" y="15" width="1" height="1" fill="white"/>
<rect x="15" y="15" width="1" height="1" fill="white"/>
<rect x="10" y="14" width="1" height="1" fill="white"/>
<rect x="12" y="14" width="1" height="1" fill="white"/>
<rect x="14" y="14" width="1" height="1" fill="white"/>
</g>
<defs>
<clipPath id="clip0_0_403">
<rect width="8" height="8" fill="white"/>
</clipPath>
<clipPath id="clip1_0_403">
<rect width="8" height="8" fill="white" transform="translate(0 8)"/>
</clipPath>
<clipPath id="clip2_0_403">
<rect width="8" height="8" fill="white" transform="translate(8)"/>
</clipPath>
<clipPath id="clip3_0_403">
<rect width="8" height="8" fill="white" transform="translate(8 8)"/>
</clipPath>
</defs>
</svg>
