<svg width="16" height="16" viewBox="0 0 16 16" fill="none" xmlns="http://www.w3.org/2000/svg">
<rect width="8" height="8" fill="white"/>
<rect x="4" y="1" width="1" height="1" fill="black"/>
<rect x="3" y="2" width="1" height="1" fill="black"/>
<rect x="2" y="3" width="1" height="1" fill="black"/>
<rect x="1" y="4" width="1" height="1" fill="black"/>
<rect x="2" y="5" width="1" height="1" fill="black"/>
<rect x="3" y="6" width="1" height="1" fill="black"/>
<rect x="4" y="7" width="1" height="1" fill="black"/>
<rect x="5" y="6" width="1" height="1" fill="black"/>
<rect x="6" y="5" width="1" height="1" fill="black"/>
<rect x="5" y="4" width="1" height="1" fill="black"/>
<rect x="4" y="5" width="1" height="1" fill="black"/>
<rect x="3" y="4" width="1" height="1" fill="black"/>
<rect x="4" y="3" width="1" height="1" fill="black"/>
<rect x="5" y="2" width="1" height="1" fill="black"/>
<rect x="6" y="3" width="1" height="1" fill="black"/>
<rect x="7" y="4" width="1" height="1" fill="black"/>
<rect width="8" height="8" transform="translate(0 8)" fill="white"/>
<rect x="4" y="9" width="1" height="1" fill="black"/>
<rect x="3" y="10" width="1" height="1" fill="black"/>
<rect x="2" y="11" width="1" height="1" fill="black"/>
<rect x="1" y="12" width="1" height="1" fill="black"/>
<rect x="2" y="13" width="1" height="1" fill="black"/>
<rect x="3" y="14" width="1" height="1" fill="black"/>
<rect x="4" y="15" width="1" height="1" fill="black"/>
<rect x="5" y="14" width="1" height="1" fill="black"/>
<rect x="6" y="13" width="1" height="1" fill="black"/>
<rect x="5" y="12" width="1" height="1" fill="black"/>
<rect x="4" y="13" width="1" height="1" fill="black"/>
<rect x="3" y="12" width="1" height="1" fill="black"/>
<rect x="4" y="11" width="1" height="1" fill="black"/>
<rect x="5" y="10" width="1" height="1" fill="black"/>
<rect x="6" y="11" width="1" height="1" fill="black"/>
<rect x="7" y="12" width="1" height="1" fill="black"/>
<rect width="8" height="8" transform="translate(8)" fill="white"/>
<rect x="12" y="1" width="1" height="1" fill="black"/>
<rect x="11" y="2" width="1" height="1" fill="black"/>
<rect x="10" y="3" width="1" height="1" fill="black"/>
<rect x="9" y="4" width="1" height="1" fill="black"/>
<rect x="10" y="5" width="1" height="1" fill="black"/>
<rect x="11" y="6" width="1" height="1" fill="black"/>
<rect x="12" y="7" width="1" height="1" fill="black"/>
<rect x="13" y="6" width="1" height="1" fill="black"/>
<rect x="14" y="5" width="1" height="1" fill="black"/>
<rect x="13" y="4" width="1" height="1" fill="black"/>
<rect x="12" y="5" width="1" height="1" fill="black"/>
<rect x="11" y="4" width="1" height="1" fill="black"/>
<rect x="12" y="3" width="1" height="1" fill="black"/>
<rect x="13" y="2" width="1" height="1" fill="black"/>
<rect x="14" y="3" width="1" height="1" fill="black"/>
<rect x="15" y="4" width="1" height="1" fill="black"/>
<rect width="8" height="8" transform="translate(8 8)" fill="white"/>
<rect x="12" y="9" width="1" height="1" fill="black"/>
<rect x="11" y="10" width="1" height="1" fill="black"/>
<rect x="10" y="11" width="1" height="1" fill="black"/>
<rect x="9" y="12" width="1" height="1" fill="black"/>
<rect x="10" y="13" width="1" height="1" fill="black"/>
<rect x="11" y="14" width="1" height="1" fill="black"/>
<rect x="12" y="15" width="1" height="1" fill="black"/>
<rect x="13" y="14" width="1" height="1" fill="black"/>
<rect x="14" y="13" width="1" height="1" fill="black"/>
<rect x="13" y="12" width="1" height="1" fill="black"/>
<rect x="12" y="13" width="1" height="1" fill="black"/>
<rect x="11" y="12" width="1" height="1" fill="black"/>
<rect x="12" y="11" width="1" height="1" fill="black"/>
<rect x="13" y="10" width="1" height="1" fill="black"/>
<rect x="14" y="11" width="1" height="1" fill="black"/>
<rect x="15" y="12" width="1" height="1" fill="black"/>
</svg>
