<svg width="16" height="16" viewBox="0 0 16 16" fill="none" xmlns="http://www.w3.org/2000/svg">
<g clip-path="url(#clip0_0_554)">
<rect width="8" height="8" fill="white"/>
<rect width="1" height="2" fill="black"/>
<rect x="1" y="2" width="1" height="1" fill="black"/>
<rect x="2" y="3" width="5" height="1" fill="black"/>
<rect x="7" y="2" width="1" height="1" fill="black"/>
<rect x="4" y="4" width="1" height="2" fill="black"/>
<rect width="2" height="1" transform="matrix(1 0 0 -1 6 8)" fill="black"/>
<rect width="3" height="1" transform="matrix(1 0 0 -1 0 8)" fill="black"/>
<rect x="5" y="6" width="1" height="1" fill="black"/>
<rect x="3" y="6" width="1" height="1" fill="black"/>
</g>
<g clip-path="url(#clip1_0_554)">
<rect width="8" height="8" transform="translate(0 8)" fill="white"/>
<rect y="8" width="1" height="2" fill="black"/>
<rect x="1" y="10" width="1" height="1" fill="black"/>
<rect x="2" y="11" width="5" height="1" fill="black"/>
<rect x="7" y="10" width="1" height="1" fill="black"/>
<rect x="4" y="12" width="1" height="2" fill="black"/>
<rect width="2" height="1" transform="matrix(1 0 0 -1 6 16)" fill="black"/>
<rect width="3" height="1" transform="matrix(1 0 0 -1 0 16)" fill="black"/>
<rect x="5" y="14" width="1" height="1" fill="black"/>
<rect x="3" y="14" width="1" height="1" fill="black"/>
</g>
<g clip-path="url(#clip2_0_554)">
<rect width="8" height="8" transform="translate(8)" fill="white"/>
<rect x="8" width="1" height="2" fill="black"/>
<rect x="9" y="2" width="1" height="1" fill="black"/>
<rect x="10" y="3" width="5" height="1" fill="black"/>
<rect x="15" y="2" width="1" height="1" fill="black"/>
<rect x="12" y="4" width="1" height="2" fill="black"/>
<rect width="2" height="1" transform="matrix(1 0 0 -1 14 8)" fill="black"/>
<rect width="3" height="1" transform="matrix(1 0 0 -1 8 8)" fill="black"/>
<rect x="13" y="6" width="1" height="1" fill="black"/>
<rect x="11" y="6" width="1" height="1" fill="black"/>
</g>
<g clip-path="url(#clip3_0_554)">
<rect width="8" height="8" transform="translate(8 8)" fill="white"/>
<rect x="8" y="8" width="1" height="2" fill="black"/>
<rect x="9" y="10" width="1" height="1" fill="black"/>
<rect x="10" y="11" width="5" height="1" fill="black"/>
<rect x="15" y="10" width="1" height="1" fill="black"/>
<rect x="12" y="12" width="1" height="2" fill="black"/>
<rect width="2" height="1" transform="matrix(1 0 0 -1 14 16)" fill="black"/>
<rect width="3" height="1" transform="matrix(1 0 0 -1 8 16)" fill="black"/>
<rect x="13" y="14" width="1" height="1" fill="black"/>
<rect x="11" y="14" width="1" height="1" fill="black"/>
</g>
<defs>
<clipPath id="clip0_0_554">
<rect width="8" height="8" fill="white"/>
</clipPath>
<clipPath id="clip1_0_554">
<rect width="8" height="8" fill="white" transform="translate(0 8)"/>
</clipPath>
<clipPath id="clip2_0_554">
<rect width="8" height="8" fill="white" transform="translate(8)"/>
</clipPath>
<clipPath id="clip3_0_554">
<rect width="8" height="8" fill="white" transform="translate(8 8)"/>
</clipPath>
</defs>
</svg>
