<svg width="16" height="16" viewBox="0 0 16 16" fill="none" xmlns="http://www.w3.org/2000/svg">
<rect width="8" height="8" fill="white"/>
<rect width="1" height="8" fill="black"/>
<rect x="2" width="1" height="8" fill="black"/>
<rect x="4" width="1" height="8" fill="black"/>
<rect x="6" width="1" height="8" fill="black"/>
<rect width="8" height="8" transform="translate(0 8)" fill="white"/>
<rect y="8" width="1" height="8" fill="black"/>
<rect x="2" y="8" width="1" height="8" fill="black"/>
<rect x="4" y="8" width="1" height="8" fill="black"/>
<rect x="6" y="8" width="1" height="8" fill="black"/>
<rect width="8" height="8" transform="translate(8)" fill="white"/>
<rect x="8" width="1" height="8" fill="black"/>
<rect x="10" width="1" height="8" fill="black"/>
<rect x="12" width="1" height="8" fill="black"/>
<rect x="14" width="1" height="8" fill="black"/>
<rect width="8" height="8" transform="translate(8 8)" fill="white"/>
<rect x="8" y="8" width="1" height="8" fill="black"/>
<rect x="10" y="8" width="1" height="8" fill="black"/>
<rect x="12" y="8" width="1" height="8" fill="black"/>
<rect x="14" y="8" width="1" height="8" fill="black"/>
</svg>
