<svg width="16" height="16" viewBox="0 0 16 16" fill="none" xmlns="http://www.w3.org/2000/svg">
<rect width="8" height="8" fill="black"/>
<rect y="1" width="1" height="1" fill="white"/>
<rect x="2" width="1" height="1" fill="white"/>
<rect x="4" y="1" width="1" height="1" fill="white"/>
<rect x="6" width="1" height="1" fill="white"/>
<rect y="3" width="1" height="1" fill="white"/>
<rect x="2" y="2" width="1" height="1" fill="white"/>
<rect x="4" y="3" width="1" height="1" fill="white"/>
<rect x="6" y="2" width="1" height="1" fill="white"/>
<rect y="5" width="1" height="1" fill="white"/>
<rect x="2" y="4" width="1" height="1" fill="white"/>
<rect x="4" y="5" width="1" height="1" fill="white"/>
<rect x="6" y="4" width="1" height="1" fill="white"/>
<rect y="7" width="1" height="1" fill="white"/>
<rect x="2" y="6" width="1" height="1" fill="white"/>
<rect x="4" y="7" width="1" height="1" fill="white"/>
<rect x="6" y="6" width="1" height="1" fill="white"/>
<rect width="8" height="8" transform="translate(0 8)" fill="black"/>
<rect y="9" width="1" height="1" fill="white"/>
<rect x="2" y="8" width="1" height="1" fill="white"/>
<rect x="4" y="9" width="1" height="1" fill="white"/>
<rect x="6" y="8" width="1" height="1" fill="white"/>
<rect y="11" width="1" height="1" fill="white"/>
<rect x="2" y="10" width="1" height="1" fill="white"/>
<rect x="4" y="11" width="1" height="1" fill="white"/>
<rect x="6" y="10" width="1" height="1" fill="white"/>
<rect y="13" width="1" height="1" fill="white"/>
<rect x="2" y="12" width="1" height="1" fill="white"/>
<rect x="4" y="13" width="1" height="1" fill="white"/>
<rect x="6" y="12" width="1" height="1" fill="white"/>
<rect y="15" width="1" height="1" fill="white"/>
<rect x="2" y="14" width="1" height="1" fill="white"/>
<rect x="4" y="15" width="1" height="1" fill="white"/>
<rect x="6" y="14" width="1" height="1" fill="white"/>
<rect width="8" height="8" transform="translate(8)" fill="black"/>
<rect x="8" y="1" width="1" height="1" fill="white"/>
<rect x="10" width="1" height="1" fill="white"/>
<rect x="12" y="1" width="1" height="1" fill="white"/>
<rect x="14" width="1" height="1" fill="white"/>
<rect x="8" y="3" width="1" height="1" fill="white"/>
<rect x="10" y="2" width="1" height="1" fill="white"/>
<rect x="12" y="3" width="1" height="1" fill="white"/>
<rect x="14" y="2" width="1" height="1" fill="white"/>
<rect x="8" y="5" width="1" height="1" fill="white"/>
<rect x="10" y="4" width="1" height="1" fill="white"/>
<rect x="12" y="5" width="1" height="1" fill="white"/>
<rect x="14" y="4" width="1" height="1" fill="white"/>
<rect x="8" y="7" width="1" height="1" fill="white"/>
<rect x="10" y="6" width="1" height="1" fill="white"/>
<rect x="12" y="7" width="1" height="1" fill="white"/>
<rect x="14" y="6" width="1" height="1" fill="white"/>
<rect width="8" height="8" transform="translate(8 8)" fill="black"/>
<rect x="8" y="9" width="1" height="1" fill="white"/>
<rect x="10" y="8" width="1" height="1" fill="white"/>
<rect x="12" y="9" width="1" height="1" fill="white"/>
<rect x="14" y="8" width="1" height="1" fill="white"/>
<rect x="8" y="11" width="1" height="1" fill="white"/>
<rect x="10" y="10" width="1" height="1" fill="white"/>
<rect x="12" y="11" width="1" height="1" fill="white"/>
<rect x="14" y="10" width="1" height="1" fill="white"/>
<rect x="8" y="13" width="1" height="1" fill="white"/>
<rect x="10" y="12" width="1" height="1" fill="white"/>
<rect x="12" y="13" width="1" height="1" fill="white"/>
<rect x="14" y="12" width="1" height="1" fill="white"/>
<rect x="8" y="15" width="1" height="1" fill="white"/>
<rect x="10" y="14" width="1" height="1" fill="white"/>
<rect x="12" y="15" width="1" height="1" fill="white"/>
<rect x="14" y="14" width="1" height="1" fill="white"/>
</svg>
