<svg width="16" height="16" viewBox="0 0 16 16" fill="none" xmlns="http://www.w3.org/2000/svg">
<g clip-path="url(#clip0_0_443)">
<rect width="8" height="8" fill="white"/>
<rect width="1" height="5" fill="black"/>
<rect x="1" width="7" height="1" fill="black"/>
<rect x="1" y="4" width="7" height="1" fill="black"/>
<rect x="4" y="5" width="1" height="3" fill="black"/>
</g>
<g clip-path="url(#clip1_0_443)">
<rect width="8" height="8" transform="translate(0 8)" fill="white"/>
<rect y="8" width="1" height="5" fill="black"/>
<rect x="1" y="8" width="7" height="1" fill="black"/>
<rect x="1" y="12" width="7" height="1" fill="black"/>
<rect x="4" y="13" width="1" height="3" fill="black"/>
</g>
<g clip-path="url(#clip2_0_443)">
<rect width="8" height="8" transform="translate(8)" fill="white"/>
<rect x="8" width="1" height="5" fill="black"/>
<rect x="9" width="7" height="1" fill="black"/>
<rect x="9" y="4" width="7" height="1" fill="black"/>
<rect x="12" y="5" width="1" height="3" fill="black"/>
</g>
<g clip-path="url(#clip3_0_443)">
<rect width="8" height="8" transform="translate(8 8)" fill="white"/>
<rect x="8" y="8" width="1" height="5" fill="black"/>
<rect x="9" y="8" width="7" height="1" fill="black"/>
<rect x="9" y="12" width="7" height="1" fill="black"/>
<rect x="12" y="13" width="1" height="3" fill="black"/>
</g>
<defs>
<clipPath id="clip0_0_443">
<rect width="8" height="8" fill="white"/>
</clipPath>
<clipPath id="clip1_0_443">
<rect width="8" height="8" fill="white" transform="translate(0 8)"/>
</clipPath>
<clipPath id="clip2_0_443">
<rect width="8" height="8" fill="white" transform="translate(8)"/>
</clipPath>
<clipPath id="clip3_0_443">
<rect width="8" height="8" fill="white" transform="translate(8 8)"/>
</clipPath>
</defs>
</svg>
