<svg width="16" height="16" viewBox="0 0 16 16" fill="none" xmlns="http://www.w3.org/2000/svg">
<g clip-path="url(#clip0_0_468)">
<rect width="8" height="8" fill="white"/>
<rect y="1" width="1" height="1" fill="black"/>
<rect x="2" y="1" width="1" height="1" fill="black"/>
<rect x="1" width="1" height="1" fill="black"/>
<rect x="1" y="2" width="1" height="3" fill="black"/>
<rect x="3" width="1" height="1" fill="black"/>
<rect x="5" width="1" height="1" fill="black"/>
<rect x="7" width="1" height="1" fill="black"/>
<rect x="3" y="4" width="1" height="1" fill="black"/>
<rect x="4" y="5" width="1" height="1" fill="black"/>
<rect x="5" y="6" width="1" height="2" fill="black"/>
<rect x="6" y="5" width="1" height="1" fill="black"/>
<rect x="5" y="4" width="1" height="1" fill="black"/>
<rect x="7" y="4" width="1" height="1" fill="black"/>
</g>
<g clip-path="url(#clip1_0_468)">
<rect width="8" height="8" transform="translate(0 8)" fill="white"/>
<rect y="9" width="1" height="1" fill="black"/>
<rect x="2" y="9" width="1" height="1" fill="black"/>
<rect x="1" y="8" width="1" height="1" fill="black"/>
<rect x="1" y="10" width="1" height="3" fill="black"/>
<rect x="3" y="8" width="1" height="1" fill="black"/>
<rect x="5" y="8" width="1" height="1" fill="black"/>
<rect x="7" y="8" width="1" height="1" fill="black"/>
<rect x="3" y="12" width="1" height="1" fill="black"/>
<rect x="4" y="13" width="1" height="1" fill="black"/>
<rect x="5" y="14" width="1" height="2" fill="black"/>
<rect x="6" y="13" width="1" height="1" fill="black"/>
<rect x="5" y="12" width="1" height="1" fill="black"/>
<rect x="7" y="12" width="1" height="1" fill="black"/>
</g>
<g clip-path="url(#clip2_0_468)">
<rect width="8" height="8" transform="translate(8)" fill="white"/>
<rect x="8" y="1" width="1" height="1" fill="black"/>
<rect x="10" y="1" width="1" height="1" fill="black"/>
<rect x="9" width="1" height="1" fill="black"/>
<rect x="9" y="2" width="1" height="3" fill="black"/>
<rect x="11" width="1" height="1" fill="black"/>
<rect x="13" width="1" height="1" fill="black"/>
<rect x="15" width="1" height="1" fill="black"/>
<rect x="11" y="4" width="1" height="1" fill="black"/>
<rect x="12" y="5" width="1" height="1" fill="black"/>
<rect x="13" y="6" width="1" height="2" fill="black"/>
<rect x="14" y="5" width="1" height="1" fill="black"/>
<rect x="13" y="4" width="1" height="1" fill="black"/>
<rect x="15" y="4" width="1" height="1" fill="black"/>
</g>
<g clip-path="url(#clip3_0_468)">
<rect width="8" height="8" transform="translate(8 8)" fill="white"/>
<rect x="8" y="9" width="1" height="1" fill="black"/>
<rect x="10" y="9" width="1" height="1" fill="black"/>
<rect x="9" y="8" width="1" height="1" fill="black"/>
<rect x="9" y="10" width="1" height="3" fill="black"/>
<rect x="11" y="8" width="1" height="1" fill="black"/>
<rect x="13" y="8" width="1" height="1" fill="black"/>
<rect x="15" y="8" width="1" height="1" fill="black"/>
<rect x="11" y="12" width="1" height="1" fill="black"/>
<rect x="12" y="13" width="1" height="1" fill="black"/>
<rect x="13" y="14" width="1" height="2" fill="black"/>
<rect x="14" y="13" width="1" height="1" fill="black"/>
<rect x="13" y="12" width="1" height="1" fill="black"/>
<rect x="15" y="12" width="1" height="1" fill="black"/>
</g>
<defs>
<clipPath id="clip0_0_468">
<rect width="8" height="8" fill="white"/>
</clipPath>
<clipPath id="clip1_0_468">
<rect width="8" height="8" fill="white" transform="translate(0 8)"/>
</clipPath>
<clipPath id="clip2_0_468">
<rect width="8" height="8" fill="white" transform="translate(8)"/>
</clipPath>
<clipPath id="clip3_0_468">
<rect width="8" height="8" fill="white" transform="translate(8 8)"/>
</clipPath>
</defs>
</svg>
