<svg width="16" height="16" viewBox="0 0 16 16" fill="none" xmlns="http://www.w3.org/2000/svg">
<rect width="8" height="8" fill="white"/>
<rect width="8" height="1" fill="black"/>
<rect y="2" width="8" height="1" fill="black"/>
<rect y="4" width="8" height="1" fill="black"/>
<rect y="6" width="8" height="1" fill="black"/>
<rect width="8" height="8" transform="translate(0 8)" fill="white"/>
<rect y="8" width="8" height="1" fill="black"/>
<rect y="10" width="8" height="1" fill="black"/>
<rect y="12" width="8" height="1" fill="black"/>
<rect y="14" width="8" height="1" fill="black"/>
<rect width="8" height="8" transform="translate(8)" fill="white"/>
<rect x="8" width="8" height="1" fill="black"/>
<rect x="8" y="2" width="8" height="1" fill="black"/>
<rect x="8" y="4" width="8" height="1" fill="black"/>
<rect x="8" y="6" width="8" height="1" fill="black"/>
<rect width="8" height="8" transform="translate(8 8)" fill="white"/>
<rect x="8" y="8" width="8" height="1" fill="black"/>
<rect x="8" y="10" width="8" height="1" fill="black"/>
<rect x="8" y="12" width="8" height="1" fill="black"/>
<rect x="8" y="14" width="8" height="1" fill="black"/>
</svg>
