<svg width="16" height="16" viewBox="0 0 16 16" fill="none" xmlns="http://www.w3.org/2000/svg">
<g clip-path="url(#clip0_0_428)">
<rect width="8" height="8" fill="white"/>
<rect width="1" height="1" fill="black"/>
<rect y="7" width="1" height="1" fill="black"/>
<rect x="7" y="7" width="1" height="1" fill="black"/>
<rect x="7" width="1" height="1" fill="black"/>
<rect x="2" width="2" height="2" fill="black"/>
<rect x="3" y="3" width="2" height="2" fill="black"/>
<rect x="4" y="6" width="2" height="2" fill="black"/>
<rect x="6" y="2" width="2" height="2" fill="black"/>
<rect y="4" width="2" height="2" fill="black"/>
</g>
<g clip-path="url(#clip1_0_428)">
<rect width="8" height="8" transform="translate(0 8)" fill="white"/>
<rect y="8" width="1" height="1" fill="black"/>
<rect y="15" width="1" height="1" fill="black"/>
<rect x="7" y="15" width="1" height="1" fill="black"/>
<rect x="7" y="8" width="1" height="1" fill="black"/>
<rect x="2" y="8" width="2" height="2" fill="black"/>
<rect x="3" y="11" width="2" height="2" fill="black"/>
<rect x="4" y="14" width="2" height="2" fill="black"/>
<rect x="6" y="10" width="2" height="2" fill="black"/>
<rect y="12" width="2" height="2" fill="black"/>
</g>
<g clip-path="url(#clip2_0_428)">
<rect width="8" height="8" transform="translate(8)" fill="white"/>
<rect x="8" width="1" height="1" fill="black"/>
<rect x="8" y="7" width="1" height="1" fill="black"/>
<rect x="15" y="7" width="1" height="1" fill="black"/>
<rect x="15" width="1" height="1" fill="black"/>
<rect x="10" width="2" height="2" fill="black"/>
<rect x="11" y="3" width="2" height="2" fill="black"/>
<rect x="12" y="6" width="2" height="2" fill="black"/>
<rect x="14" y="2" width="2" height="2" fill="black"/>
<rect x="8" y="4" width="2" height="2" fill="black"/>
</g>
<g clip-path="url(#clip3_0_428)">
<rect width="8" height="8" transform="translate(8 8)" fill="white"/>
<rect x="8" y="8" width="1" height="1" fill="black"/>
<rect x="8" y="15" width="1" height="1" fill="black"/>
<rect x="15" y="15" width="1" height="1" fill="black"/>
<rect x="15" y="8" width="1" height="1" fill="black"/>
<rect x="10" y="8" width="2" height="2" fill="black"/>
<rect x="11" y="11" width="2" height="2" fill="black"/>
<rect x="12" y="14" width="2" height="2" fill="black"/>
<rect x="14" y="10" width="2" height="2" fill="black"/>
<rect x="8" y="12" width="2" height="2" fill="black"/>
</g>
<defs>
<clipPath id="clip0_0_428">
<rect width="8" height="8" fill="white"/>
</clipPath>
<clipPath id="clip1_0_428">
<rect width="8" height="8" fill="white" transform="translate(0 8)"/>
</clipPath>
<clipPath id="clip2_0_428">
<rect width="8" height="8" fill="white" transform="translate(8)"/>
</clipPath>
<clipPath id="clip3_0_428">
<rect width="8" height="8" fill="white" transform="translate(8 8)"/>
</clipPath>
</defs>
</svg>
